<?xml version="1.0" encoding="iso-8859-1"?>
<!-- Uploaded to: SVG Repo, www.svgrepo.com, Generator: SVG Repo Mixer Tools -->
<svg height="800px" width="800px" version="1.1" id="Layer_1" xmlns="http://www.w3.org/2000/svg" xmlns:xlink="http://www.w3.org/1999/xlink" 
	 viewBox="0 0 512 512" xml:space="preserve">
<path style="fill:#C7C5CB;" d="M167.977,511.761L28.761,500.998c-12.366-0.956-22.078-10.981-22.643-23.371L0.025,343.742
	c-0.314-6.895,2.288-13.604,7.169-18.484l23.512-23.512l0.967-0.967l20.862-20.862l64.897-64.897c9.592-9.592,25.143-9.592,34.735,0
	l144.977,144.979c9.592,9.592,9.592,25.143,0,34.735L187.237,504.641C182.166,509.713,175.129,512.314,167.977,511.761z"/>
<path style="fill:#AEADB3;" d="M297.145,359.999l-18.882-18.882c9.592,9.592,9.592,25.143,0,34.735L168.356,485.759
	c-5.072,5.072-12.108,7.674-19.261,7.12L9.879,482.116c-1.103-0.085-2.175-0.266-3.231-0.492
	c2.227,10.487,11.11,18.523,22.112,19.373l139.217,10.763c7.152,0.553,14.188-2.048,19.261-7.12l109.907-109.907
	C306.735,385.142,306.735,369.591,297.145,359.999z"/>
<path style="fill:#D8D8DA;" d="M171.674,369.364c-3.426,2.271-7.351,3.472-11.349,3.472h-0.001c-7.521,0-14.454-4.171-18.092-10.886
	c-3.61-6.66-3.267-14.47,0.917-20.891l28.617-43.914l0,0c-20.417-20.417-53.519-20.417-73.934,0l-28.478,25.22
	C49.507,339.943,39.42,366.057,42.3,392.413l5.885,53.859c0.76,6.959,6.35,12.401,13.326,12.976l59.24,4.876
	c22.194,1.827,44.171-5.483,60.85-20.239l33.561-29.693c20.338-20.338,20.338-53.312,0-73.65l0,0L171.674,369.364z"/>
<path style="fill:#C7C5CB;" d="M365.252,114.623L197.237,282.639c-0.356,0.356-0.673,0.747-0.948,1.169L154.261,348.3
	c-4.301,6.6,3.52,14.361,10.087,10.008l64.037-42.444c0.403-0.267,0.779-0.575,1.122-0.917l168.036-168.036L365.252,114.623z"/>
<path style="fill:#AEADB3;" d="M378.476,127.846L210.44,295.882c-0.343,0.343-0.718,0.65-1.122,0.917l-37.839,25.08L154.261,348.3
	c-4.301,6.6,3.52,14.361,10.087,10.008l64.037-42.443c0.403-0.267,0.779-0.575,1.122-0.917l168.036-168.036L378.476,127.846z"/>
<path style="fill:#FEA921;" d="M507.937,134.661L377.504,4.228c-5.417-5.417-14.201-5.417-19.618,0l-29.015,29.015
	c-4.493,4.493-5.358,11.464-2.102,16.92l38.483,64.461l32.29,32.29l64.461,38.483c5.456,3.257,12.427,2.391,16.92-2.102
	l29.015-29.015C513.354,148.862,513.354,140.078,507.937,134.661z M465.169,145.305c-5.612,5.611-14.709,5.611-20.321,0
	L361.484,61.94c-5.611-5.612-5.611-14.709,0-20.321l0,0c5.612-5.612,14.709-5.612,20.321,0l83.366,83.366
	C470.781,130.596,470.781,139.694,465.169,145.305L465.169,145.305z"/>
</svg>